<?xml version="1.0" standalone="no"?>
<!DOCTYPE svg PUBLIC "-//W3C//DTD SVG 20010904//EN"
 "http://www.w3.org/TR/2001/REC-SVG-20010904/DTD/svg10.dtd">
<svg version="1.0" xmlns="http://www.w3.org/2000/svg"
 width="200.000000pt" height="99.000000pt" viewBox="0 0 200.000000 99.000000"
 preserveAspectRatio="xMidYMid meet">

<g transform="translate(0.000000,99.000000) scale(0.100000,-0.100000)"
fill="#000000" stroke="none">
<path d="M652 939 c-61 -13 -133 -99 -131 -156 l1 -28 7 31 c21 85 80 133 146
118 21 -5 40 -15 42 -21 3 -7 -4 -9 -16 -6 -29 7 -29 -32 0 -47 46 -25 96 55
55 89 -23 19 -69 28 -104 20z"/>
<path d="M446 901 c-25 -27 -17 -56 14 -56 18 0 25 5 24 18 -1 9 2 17 7 17 12
0 11 -17 -3 -56 -27 -76 31 -196 116 -236 34 -16 36 -18 11 -13 -75 16 -145
114 -145 203 0 29 -4 41 -11 36 -18 -11 -5 -104 20 -158 15 -30 38 -57 64 -74
37 -24 49 -27 126 -26 57 1 78 -1 64 -7 -33 -12 -28 -23 7 -15 17 3 29 2 26
-3 -3 -5 -20 -11 -38 -15 -23 -5 -29 -9 -21 -17 8 -8 20 -7 44 5 18 9 39 16
48 16 30 0 61 30 61 58 0 20 3 23 9 12 6 -8 7 -18 5 -22 -3 -4 -1 -8 3 -8 5 0
8 -15 8 -32 0 -29 3 -33 25 -33 18 0 26 6 28 23 4 26 -13 29 -27 5 -5 -10 -13
-14 -17 -10 -11 10 9 42 27 43 8 0 94 2 192 2 166 2 177 3 177 21 0 34 38 71
75 71 34 0 75 -36 75 -66 0 -8 6 -14 14 -14 26 0 43 28 42 67 -1 36 -3 38 -41
45 -22 4 -88 7 -146 7 l-105 1 -54 40 c-52 39 -56 40 -134 40 -68 0 -101 -7
-199 -40 -66 -22 -122 -40 -127 -40 -4 0 -11 10 -14 23 l-6 22 -15 -25 c-20
-35 -20 1 0 40 15 30 38 39 50 20 3 -5 -1 -10 -10 -10 -25 0 -14 -34 13 -38
16 -2 25 4 34 23 16 36 -5 55 -66 60 -67 5 -90 -19 -82 -83 13 -93 14 -122 5
-122 -19 0 -79 73 -90 110 -12 39 -9 68 16 147 5 15 1 27 -14 42 -26 26 -43
27 -65 2z m198 -122 c-11 -13 -19 -35 -19 -59 0 -21 -3 -36 -7 -34 -25 15 5
114 34 114 6 0 3 -9 -8 -21z m477 -51 l44 -33 -109 -3 c-60 -1 -110 -1 -112 1
-2 2 -5 14 -6 28 -3 21 2 25 37 30 83 13 101 10 146 -23z m-221 -19 c0 -11 -4
-17 -10 -14 -5 3 -10 13 -10 21 0 8 5 14 10 14 6 0 10 -9 10 -21z m-30 1 c0
-5 -2 -10 -4 -10 -3 0 -8 5 -11 10 -3 6 -1 10 4 10 6 0 11 -4 11 -10z m-19
-80 c13 -10 19 -19 13 -20 -6 0 -17 7 -24 15 -26 31 -75 15 -96 -32 -10 -22
-13 -24 -13 -9 -1 29 38 66 70 66 15 0 37 -9 50 -20z m139 4 c-34 -7 -110 -9
-110 -2 0 5 28 7 63 7 34 -1 55 -3 47 -5z m-165 -33 c5 -9 -23 -31 -38 -31 -4
0 -3 21 2 38 2 6 31 1 36 -7z m100 -19 c-7 -8 -35 7 -35 18 0 6 7 6 20 -2 10
-7 17 -14 15 -16z m183 1 c-27 -2 -69 -2 -95 0 -27 2 -5 3 47 3 52 0 74 -1 48
-3z m-278 -17 c0 -2 -7 -7 -16 -10 -8 -3 -12 -2 -9 4 6 10 25 14 25 6z"/>
<path d="M342 894 c-32 -22 -28 -77 6 -82 17 -3 22 2 22 17 0 12 -6 21 -15 21
-19 0 -20 29 -1 36 24 9 55 -14 66 -49 l10 -32 -5 35 c-4 31 -35 70 -54 70 -4
0 -17 -7 -29 -16z"/>
<path d="M581 855 c-17 -20 -31 -40 -31 -46 0 -6 12 3 26 20 15 18 39 33 60
37 41 8 45 24 5 24 -21 0 -38 -10 -60 -35z"/>
<path d="M360 863 c22 -9 29 -24 24 -53 -2 -14 4 -43 15 -65 l19 -40 -6 65
c-6 79 -16 100 -45 99 -15 0 -17 -2 -7 -6z"/>
<path d="M591 826 c-26 -28 -38 -95 -22 -122 10 -17 11 -16 5 7 -9 43 19 95
60 110 43 16 47 29 8 29 -17 0 -38 -10 -51 -24z"/>
<path d="M367 745 c8 -25 35 -67 59 -93 l45 -47 -34 47 c-19 26 -43 67 -52 92
-23 59 -39 60 -18 1z"/>
<path d="M541 774 c0 -11 3 -14 6 -6 3 7 2 16 -1 19 -3 4 -6 -2 -5 -13z"/>
<path d="M550 656 c0 -2 8 -10 18 -17 15 -13 16 -12 3 4 -13 16 -21 21 -21 13z"/>
<path d="M1327 622 c-25 -28 -21 -69 8 -88 29 -19 60 -11 81 20 37 57 -44 118
-89 68z m63 -28 c11 -12 11 -18 -2 -30 -18 -18 -48 -8 -48 15 0 33 28 42 50
15z"/>
<path d="M1322 440 c-21 -28 -21 -30 -4 -30 10 0 31 14 47 30 l29 30 -25 0
c-16 0 -33 -11 -47 -30z"/>
<path d="M1604 445 c-8 -21 3 -34 26 -28 27 7 27 43 0 43 -11 0 -23 -7 -26
-15z"/>
<path d="M46 360 c-20 -50 -36 -92 -36 -95 0 -3 11 -5 24 -5 16 0 27 7 31 20
4 14 15 20 36 20 22 0 29 -5 29 -20 0 -15 7 -20 25 -20 25 0 25 0 25 95 l0 95
-49 0 -49 0 -36 -90z m84 10 c0 -36 -3 -40 -25 -40 -15 0 -23 5 -20 13 19 54
26 67 35 67 5 0 10 -18 10 -40z"/>
<path d="M242 385 c-7 -36 -15 -78 -18 -95 l-6 -30 64 0 c83 0 106 21 115 105
8 72 -6 85 -87 85 l-57 0 -11 -65z m102 -22 c0 -23 -6 -49 -14 -57 -16 -20
-64 -22 -57 -2 3 7 9 35 12 60 7 43 9 47 34 44 24 -3 26 -7 25 -45z"/>
<path d="M450 393 c-7 -32 -15 -75 -20 -95 -8 -37 -7 -38 20 -38 25 0 29 4 32
33 4 42 29 42 42 0 7 -28 14 -33 39 -33 23 0 28 4 23 16 -16 42 -16 61 -2 73
19 16 21 72 4 89 -7 7 -38 12 -69 12 l-58 0 -11 -57z m98 -5 c-2 -16 -11 -24
-29 -26 -23 -3 -26 0 -22 22 4 20 11 26 30 26 20 0 24 -4 21 -22z"/>
<path d="M736 438 c-3 -7 -9 -42 -16 -78 -6 -36 -13 -73 -16 -82 -5 -16 3 -18
70 -18 61 0 76 3 76 15 0 11 -12 15 -45 15 -38 0 -45 3 -45 20 0 17 7 20 45
20 38 0 45 3 45 20 0 17 -7 20 -41 20 -33 0 -40 3 -35 16 3 9 6 18 6 20 0 2
22 4 49 4 40 0 50 3 54 20 5 19 0 20 -69 20 -51 0 -76 -4 -78 -12z"/>
<path d="M1094 412 c-13 -9 -35 -117 -28 -137 17 -42 133 -18 134 28 0 11 -38
9 -45 -3 -11 -17 -45 -11 -45 8 0 29 14 40 54 44 55 4 60 28 7 28 -34 0 -41 3
-41 20 0 20 -16 26 -36 12z"/>
<path d="M1434 412 c-6 -4 -16 -34 -23 -67 -11 -57 -10 -61 10 -77 12 -10 30
-18 41 -18 34 0 77 29 78 53 0 11 -38 9 -45 -3 -9 -15 -45 -12 -45 4 0 36 12
46 56 46 32 0 44 4 44 15 0 11 -11 15 -40 15 -33 0 -40 3 -40 20 0 20 -16 26
-36 12z"/>
<path d="M945 383 c-29 -7 -45 -23 -45 -45 0 -19 4 -22 53 -32 42 -10 22 -27
-24 -20 -26 5 -39 3 -39 -5 0 -19 46 -34 83 -27 67 13 75 60 12 72 -19 3 -38
10 -41 15 -8 14 26 23 39 10 6 -6 19 -11 28 -11 21 0 35 18 23 30 -12 11 -65
19 -89 13z"/>
<path d="M1280 381 c-48 -13 -69 -100 -29 -122 26 -13 82 -4 99 17 18 21 4 30
-30 17 -30 -11 -40 -8 -40 14 0 9 14 13 45 13 32 0 47 5 52 16 12 32 -47 60
-97 45z m48 -39 c2 -7 -7 -12 -23 -12 -24 0 -26 2 -15 15 14 17 31 16 38 -3z"/>
<path d="M1713 380 c-45 -18 -60 -100 -22 -121 35 -18 109 5 109 34 0 6 -15 7
-39 3 -45 -7 -57 4 -41 34 12 22 47 23 43 2 -2 -7 8 -12 22 -12 20 0 25 5 25
25 0 37 -49 54 -97 35z"/>
<path d="M1883 380 c-28 -12 -43 -40 -43 -84 0 -29 4 -37 24 -42 14 -3 32 -1
42 4 12 7 26 6 41 -1 19 -8 27 -7 41 7 14 14 15 18 3 25 -10 7 -12 20 -7 50 6
40 6 41 -23 41 -16 0 -35 2 -43 4 -7 3 -23 1 -35 -4z m53 -46 c-3 -9 -6 -22
-6 -30 0 -16 -36 -19 -45 -4 -10 16 14 50 36 50 15 0 19 -5 15 -16z"/>
<path d="M1587 366 c-3 -7 -8 -34 -12 -59 -6 -39 -4 -46 13 -51 10 -4 27 -4
36 0 18 7 22 34 5 34 -7 0 -8 16 -3 45 6 41 4 45 -14 45 -11 0 -22 -6 -25 -14z"/>
<path d="M1285 171 c-6 -11 9 -23 19 -14 9 9 7 23 -3 23 -6 0 -12 -4 -16 -9z"/>
<path d="M430 145 c-19 -49 -22 -75 -11 -75 6 0 11 5 11 10 0 6 7 10 15 10 8
0 15 -4 15 -10 0 -5 7 -10 15 -10 11 0 15 12 15 50 0 47 -2 50 -25 50 -18 0
-28 -7 -35 -25z m30 -15 c0 -11 -4 -20 -9 -20 -5 0 -7 9 -4 20 3 11 7 20 9 20
2 0 4 -9 4 -20z"/>
<path d="M672 148 c-7 -7 -12 -27 -12 -46 0 -30 2 -33 27 -30 14 2 28 9 31 17
3 10 -2 11 -18 6 -16 -5 -21 -3 -18 6 2 7 15 16 29 20 23 6 23 7 4 14 -11 5
-23 12 -26 17 -3 4 -10 3 -17 -4z"/>
<path d="M1176 149 c-4 -8 -8 -29 -9 -45 -2 -23 3 -30 19 -32 11 -2 27 5 35
14 12 15 12 16 -9 10 -16 -6 -22 -3 -22 8 0 9 9 16 20 16 11 0 20 5 20 10 0 6
-9 10 -19 10 -11 0 -21 6 -24 13 -3 8 -7 8 -11 -4z"/>
<path d="M548 134 c-5 -4 -8 -20 -8 -36 0 -25 3 -28 33 -28 32 0 34 2 35 35 2
40 -15 47 -24 10 -8 -33 -22 -32 -26 1 -2 14 -6 22 -10 18z"/>
<path d="M782 128 c-7 -7 -12 -22 -12 -35 0 -18 6 -23 25 -23 26 0 50 32 41
56 -7 17 -38 18 -54 2z m24 -35 c-10 -10 -19 5 -10 18 6 11 8 11 12 0 2 -7 1
-15 -2 -18z"/>
<path d="M890 126 c0 -6 -3 -21 -6 -33 -4 -14 -2 -23 5 -23 6 0 13 11 17 25 3
14 11 25 16 25 6 0 8 -11 6 -25 -4 -17 -1 -25 8 -25 8 0 14 9 14 19 0 11 5 23
10 26 6 4 10 -5 10 -19 0 -16 6 -26 14 -26 10 0 14 10 13 33 -2 32 -3 32 -54
33 -34 1 -53 -3 -53 -10z"/>
<path d="M1062 128 c-7 -7 -12 -22 -12 -35 0 -18 6 -23 25 -23 26 0 50 32 41
56 -7 17 -38 18 -54 2z m24 -35 c-10 -10 -19 5 -10 18 6 11 8 11 12 0 2 -7 1
-15 -2 -18z"/>
<path d="M1280 128 c0 -7 -3 -23 -6 -35 -5 -18 -2 -23 13 -23 16 0 18 6 15 35
-4 32 -22 51 -22 23z"/>
<path d="M1356 124 c-13 -34 -7 -54 17 -54 29 0 47 18 47 47 0 29 -18 30 -22
1 -2 -12 -9 -23 -16 -26 -9 -3 -11 3 -6 22 7 28 -10 37 -20 10z"/>
<path d="M1470 115 c-13 -35 -7 -43 34 -43 31 0 33 2 31 32 -2 25 -7 32 -29
34 -20 3 -28 -2 -36 -23z m40 -10 c0 -8 -4 -15 -10 -15 -5 0 -10 7 -10 15 0 8
5 15 10 15 6 0 10 -7 10 -15z"/>
</g>
</svg>
